<svg width="11" height="11" viewBox="0 0 11 11" fill="none" xmlns="http://www.w3.org/2000/svg">
<path d="M5.70136 0.709209C5.96985 0.430264 6.40515 0.430264 6.67364 0.709209L10.7986 4.99492C10.9276 5.12888 11 5.31056 11 5.5C11 5.68944 10.9276 5.87112 10.7986 6.00508L6.67364 10.2908C6.40515 10.5697 5.96985 10.5697 5.70136 10.2908C5.43288 10.0118 5.43288 9.55958 5.70136 9.28064L8.65273 6.21429L0.6875 6.21429C0.307804 6.21429 0 5.89449 0 5.5C0 5.10551 0.307804 4.78572 0.6875 4.78572L8.65273 4.78572L5.70136 1.71936C5.43288 1.44042 5.43288 0.988155 5.70136 0.709209Z" fill="#252525"/>
</svg>
