<svg width="204" height="50" viewBox="0 0 204 50" fill="none" xmlns="http://www.w3.org/2000/svg">
<g clip-path="url(#clip0)">
<path d="M38.3131 27.7692L35.1182 33.3333C35.885 34.6923 44.0383 48.641 44.8051 50C47.1054 50 61.7252 50 63.9744 50C63.9489 49.9487 38.8498 6.48718 38.3131 5.5641C30.1597 19.7436 24.8435 29.0513 15.9744 44.4359H9.58467C9.58467 44.4359 33.9681 1.97436 35.1182 0H28.7284C28.7284 0 2.12141 46.3077 0 50C2.30032 50 16.9201 50 19.1693 50C19.1693 50 21.3674 46.1795 25.2013 39.4872C27.5527 43.5128 30.8243 49.1026 31.3355 50.0256C32.1789 50.0256 34.7348 50.0256 37.7252 50.0256C35.1693 45.6154 31.0032 38.4615 28.3706 33.9487C31.1566 29.0769 34.5048 23.2564 38.2875 16.6923C39.6166 19 53.0096 42.1282 54.3642 44.4872H47.9744C47.2332 43.1026 39.1054 29.1282 38.3131 27.7692Z" fill="white"/>
</g>
<path d="M102.516 31.2742H93.0823L91.5894 34.6613H88L97.2435 14H98.387L107.63 34.6613H104.009L102.516 31.2742ZM97.8152 20.066L94.2894 28.4721H101.309L97.8152 20.066Z" fill="white"/>
<path d="M126.118 14.3387L116.875 35H115.731L106.488 14.3387H110.268L116.303 28.4721L122.338 14.3387H126.118Z" fill="white"/>
<path d="M139.492 31.2742H130.058L128.565 34.6613H124.976L134.219 14H135.363L144.606 34.6613H140.985L139.492 31.2742ZM134.791 20.066L131.265 28.4721H138.285L134.791 20.066Z" fill="white"/>
<path d="M147.945 14.3387H151.312V34.6613H147.945V14.3387ZM165.288 34.6613H161.127L151.407 23.8534L160.206 14.3387H164.336L155.632 23.8534L165.288 34.6613Z" fill="white"/>
<path d="M168.635 14.3387H182.421V17.2639H172.002V22.4677H179.848V25.3006H172.002V31.7361H182.802V34.6613H168.635V14.3387Z" fill="white"/>
<path d="M204 14.3387V35H202.856L190.087 20.8974V34.6613H186.72V14H187.895L200.633 28.0411V14.3387H204Z" fill="white"/>
<defs>
<clipPath id="clip0">
<rect width="64" height="50" fill="white"/>
</clipPath>
</defs>
</svg>
